<mxfile host="app.diagrams.net" agent="Mozilla/5.0 (Windows NT 10.0; Win64; x64) AppleWebKit/537.36 (KHTML, like Gecko) Chrome/133.0.0.0 Safari/537.36 Edg/133.0.0.0" version="26.0.14">
  <diagram name="Page-1" id="ugnj6vP9ztlFU22MYtA7">
    <mxGraphModel dx="1554" dy="819" grid="1" gridSize="10" guides="1" tooltips="1" connect="1" arrows="1" fold="1" page="1" pageScale="1" pageWidth="827" pageHeight="1169" math="0" shadow="0">
      <root>
        <mxCell id="0" />
        <mxCell id="1" parent="0" />
        <mxCell id="xREA5gm83luH5El8yLYb-7" value="" style="edgeStyle=orthogonalEdgeStyle;rounded=0;orthogonalLoop=1;jettySize=auto;html=1;" edge="1" parent="1" source="xREA5gm83luH5El8yLYb-5">
          <mxGeometry relative="1" as="geometry">
            <mxPoint x="280" y="340" as="targetPoint" />
          </mxGeometry>
        </mxCell>
        <mxCell id="xREA5gm83luH5El8yLYb-12" value="" style="edgeStyle=orthogonalEdgeStyle;rounded=0;orthogonalLoop=1;jettySize=auto;html=1;" edge="1" parent="1" target="xREA5gm83luH5El8yLYb-11">
          <mxGeometry relative="1" as="geometry">
            <mxPoint x="400" y="340" as="sourcePoint" />
          </mxGeometry>
        </mxCell>
        <mxCell id="xREA5gm83luH5El8yLYb-8" value="&lt;span style=&quot;font-size: 16px;&quot;&gt;&lt;font face=&quot;Helvetica&quot;&gt;超高速磁浮线路测量控制与精度体系构建&lt;/font&gt;&lt;/span&gt;" style="text;html=1;align=center;verticalAlign=middle;whiteSpace=wrap;rounded=0;" vertex="1" parent="1">
          <mxGeometry x="160" y="280" width="320" height="30" as="geometry" />
        </mxCell>
        <mxCell id="xREA5gm83luH5El8yLYb-13" value="&lt;span style=&quot;font-size: 12pt; line-height: 150%;&quot;&gt;&lt;font face=&quot;Helvetica&quot;&gt;管内多外传感器融合的轨道不平顺动态监测&lt;/font&gt;&lt;/span&gt;" style="text;html=1;align=center;verticalAlign=middle;whiteSpace=wrap;rounded=0;" vertex="1" parent="1">
          <mxGeometry x="160" y="410" width="320" height="30" as="geometry" />
        </mxCell>
        <mxCell id="xREA5gm83luH5El8yLYb-18" value="" style="edgeStyle=orthogonalEdgeStyle;rounded=0;orthogonalLoop=1;jettySize=auto;html=1;" edge="1" parent="1" source="xREA5gm83luH5El8yLYb-16" target="xREA5gm83luH5El8yLYb-17">
          <mxGeometry relative="1" as="geometry" />
        </mxCell>
        <mxCell id="xREA5gm83luH5El8yLYb-16" value="&lt;span style=&quot;text-align: left;&quot;&gt;明确超高速磁浮线路平顺性等特殊要求&lt;/span&gt;" style="rounded=1;whiteSpace=wrap;html=1;" vertex="1" parent="1">
          <mxGeometry x="78" y="320" width="120" height="60" as="geometry" />
        </mxCell>
        <mxCell id="xREA5gm83luH5El8yLYb-20" value="" style="edgeStyle=orthogonalEdgeStyle;rounded=0;orthogonalLoop=1;jettySize=auto;html=1;" edge="1" parent="1" source="xREA5gm83luH5El8yLYb-17" target="xREA5gm83luH5El8yLYb-19">
          <mxGeometry relative="1" as="geometry" />
        </mxCell>
        <mxCell id="xREA5gm83luH5El8yLYb-17" value="&lt;span style=&quot;text-align: left;&quot;&gt;构建测量流程、精度评定等理论框架&lt;/span&gt;" style="whiteSpace=wrap;html=1;rounded=1;" vertex="1" parent="1">
          <mxGeometry x="240" y="320" width="120" height="60" as="geometry" />
        </mxCell>
        <mxCell id="xREA5gm83luH5El8yLYb-58" style="edgeStyle=orthogonalEdgeStyle;rounded=0;orthogonalLoop=1;jettySize=auto;html=1;" edge="1" parent="1">
          <mxGeometry relative="1" as="geometry">
            <mxPoint x="600" y="410" as="targetPoint" />
            <mxPoint x="530" y="350" as="sourcePoint" />
          </mxGeometry>
        </mxCell>
        <mxCell id="xREA5gm83luH5El8yLYb-59" value="理论基础" style="edgeLabel;html=1;align=center;verticalAlign=middle;resizable=0;points=[];" vertex="1" connectable="0" parent="xREA5gm83luH5El8yLYb-58">
          <mxGeometry x="-0.0954" relative="1" as="geometry">
            <mxPoint as="offset" />
          </mxGeometry>
        </mxCell>
        <mxCell id="xREA5gm83luH5El8yLYb-19" value="&lt;span style=&quot;text-align: left;&quot;&gt;为磁浮测量控制与精度体系提供理论&lt;/span&gt;&lt;span style=&quot;color: light-dark(rgb(0, 0, 0), rgb(255, 255, 255)); text-align: left; background-color: transparent;&quot;&gt;支持&lt;/span&gt;" style="whiteSpace=wrap;html=1;rounded=1;" vertex="1" parent="1">
          <mxGeometry x="400" y="320" width="120" height="60" as="geometry" />
        </mxCell>
        <mxCell id="xREA5gm83luH5El8yLYb-23" value="" style="edgeStyle=orthogonalEdgeStyle;rounded=0;orthogonalLoop=1;jettySize=auto;html=1;" edge="1" parent="1" source="xREA5gm83luH5El8yLYb-21" target="xREA5gm83luH5El8yLYb-22">
          <mxGeometry relative="1" as="geometry" />
        </mxCell>
        <mxCell id="xREA5gm83luH5El8yLYb-21" value="&lt;span style=&quot;line-height: 150%;&quot;&gt;&lt;font&gt;研发管内外多传感器融合的动态测量系统&lt;/font&gt;&lt;/span&gt;" style="rounded=1;whiteSpace=wrap;html=1;" vertex="1" parent="1">
          <mxGeometry x="78" y="450" width="120" height="60" as="geometry" />
        </mxCell>
        <mxCell id="xREA5gm83luH5El8yLYb-25" value="" style="edgeStyle=orthogonalEdgeStyle;rounded=0;orthogonalLoop=1;jettySize=auto;html=1;" edge="1" parent="1" source="xREA5gm83luH5El8yLYb-22" target="xREA5gm83luH5El8yLYb-24">
          <mxGeometry relative="1" as="geometry" />
        </mxCell>
        <mxCell id="xREA5gm83luH5El8yLYb-22" value="&lt;span style=&quot;color: rgba(0, 0, 0, 0.85); font-family: Inter, -apple-system, BlinkMacSystemFont, &amp;quot;Segoe UI&amp;quot;, &amp;quot;SF Pro SC&amp;quot;, &amp;quot;SF Pro Display&amp;quot;, &amp;quot;SF Pro Icons&amp;quot;, &amp;quot;PingFang SC&amp;quot;, &amp;quot;Hiragino Sans GB&amp;quot;, &amp;quot;Microsoft YaHei&amp;quot;, &amp;quot;Helvetica Neue&amp;quot;, Helvetica, Arial, sans-serif; text-align: left; background-color: rgb(249, 250, 251);&quot;&gt;&lt;font&gt;建立轨道不平顺多时相动态耦合分析模型&lt;/font&gt;&lt;/span&gt;" style="rounded=1;whiteSpace=wrap;html=1;" vertex="1" parent="1">
          <mxGeometry x="240" y="450" width="120" height="60" as="geometry" />
        </mxCell>
        <mxCell id="xREA5gm83luH5El8yLYb-27" value="" style="edgeStyle=orthogonalEdgeStyle;rounded=0;orthogonalLoop=1;jettySize=auto;html=1;" edge="1" parent="1" source="xREA5gm83luH5El8yLYb-24" target="xREA5gm83luH5El8yLYb-26">
          <mxGeometry relative="1" as="geometry" />
        </mxCell>
        <mxCell id="xREA5gm83luH5El8yLYb-24" value="解析复杂因素引起的轨道形变问题" style="rounded=1;whiteSpace=wrap;html=1;" vertex="1" parent="1">
          <mxGeometry x="400" y="450" width="120" height="60" as="geometry" />
        </mxCell>
        <mxCell id="xREA5gm83luH5El8yLYb-26" value="&lt;font&gt;形成轨道不平顺动态监测成套理论和方法，支撑安全运维&lt;/font&gt;" style="rounded=1;whiteSpace=wrap;html=1;" vertex="1" parent="1">
          <mxGeometry x="560" y="450" width="120" height="60" as="geometry" />
        </mxCell>
        <mxCell id="xREA5gm83luH5El8yLYb-28" value="&lt;span style=&quot;font-size: 12pt; line-height: 150%;&quot;&gt;基于&lt;/span&gt;&lt;span style=&quot;font-size: 12pt; line-height: 150%; font-family: &amp;quot;Times New Roman&amp;quot;, serif;&quot; lang=&quot;EN-US&quot;&gt;BDS+InSAR+TQ&lt;/span&gt;&lt;span style=&quot;font-size: 12pt; line-height: 150%; font-family: 宋体;&quot;&gt;的大范围基础形变监测&lt;/span&gt;" style="text;html=1;align=center;verticalAlign=middle;whiteSpace=wrap;rounded=0;" vertex="1" parent="1">
          <mxGeometry x="160" y="560" width="320" height="30" as="geometry" />
        </mxCell>
        <mxCell id="xREA5gm83luH5El8yLYb-29" value="&lt;font&gt;&lt;span style=&quot;font-family: &amp;quot;Times New Roman&amp;quot;, serif;&quot;&gt;BDS、InSAR、TQ数据&lt;/span&gt;&lt;/font&gt;" style="rounded=1;whiteSpace=wrap;html=1;" vertex="1" parent="1">
          <mxGeometry x="78" y="595" width="120" height="60" as="geometry" />
        </mxCell>
        <mxCell id="xREA5gm83luH5El8yLYb-32" value="&lt;div&gt;重力场数据&lt;/div&gt;&lt;div&gt;BDS形变&lt;/div&gt;&lt;div&gt;InSAR形变&lt;/div&gt;" style="whiteSpace=wrap;html=1;rounded=1;" vertex="1" parent="1">
          <mxGeometry x="300" y="595" width="120" height="60" as="geometry" />
        </mxCell>
        <mxCell id="xREA5gm83luH5El8yLYb-36" value="" style="endArrow=classic;html=1;rounded=0;exitX=1;exitY=0.5;exitDx=0;exitDy=0;" edge="1" parent="1" source="xREA5gm83luH5El8yLYb-32" target="xREA5gm83luH5El8yLYb-42">
          <mxGeometry relative="1" as="geometry">
            <mxPoint x="502" y="585" as="sourcePoint" />
            <mxPoint x="600" y="585" as="targetPoint" />
          </mxGeometry>
        </mxCell>
        <mxCell id="xREA5gm83luH5El8yLYb-37" value="Label" style="edgeLabel;resizable=0;html=1;;align=center;verticalAlign=middle;" connectable="0" vertex="1" parent="xREA5gm83luH5El8yLYb-36">
          <mxGeometry relative="1" as="geometry" />
        </mxCell>
        <mxCell id="xREA5gm83luH5El8yLYb-43" value="Text" style="edgeLabel;html=1;align=center;verticalAlign=middle;resizable=0;points=[];" vertex="1" connectable="0" parent="xREA5gm83luH5El8yLYb-36">
          <mxGeometry x="0.1455" y="-1" relative="1" as="geometry">
            <mxPoint as="offset" />
          </mxGeometry>
        </mxCell>
        <mxCell id="xREA5gm83luH5El8yLYb-44" value="&lt;div&gt;&lt;font style=&quot;font-size: 10px;&quot;&gt;耦合分析&lt;/font&gt;&lt;/div&gt;&lt;div&gt;&lt;font style=&quot;font-size: 10px;&quot;&gt;融合模型&lt;/font&gt;&lt;/div&gt;" style="edgeLabel;html=1;align=center;verticalAlign=middle;resizable=0;points=[];" vertex="1" connectable="0" parent="xREA5gm83luH5El8yLYb-36">
          <mxGeometry x="-0.0667" y="-3" relative="1" as="geometry">
            <mxPoint as="offset" />
          </mxGeometry>
        </mxCell>
        <mxCell id="xREA5gm83luH5El8yLYb-38" value="" style="endArrow=classic;html=1;rounded=0;" edge="1" parent="1" source="xREA5gm83luH5El8yLYb-29" target="xREA5gm83luH5El8yLYb-32">
          <mxGeometry relative="1" as="geometry">
            <mxPoint x="226" y="585" as="sourcePoint" />
            <mxPoint x="326" y="585" as="targetPoint" />
          </mxGeometry>
        </mxCell>
        <mxCell id="xREA5gm83luH5El8yLYb-39" value="Label" style="edgeLabel;resizable=0;html=1;;align=center;verticalAlign=middle;" connectable="0" vertex="1" parent="xREA5gm83luH5El8yLYb-38">
          <mxGeometry relative="1" as="geometry" />
        </mxCell>
        <mxCell id="xREA5gm83luH5El8yLYb-41" value="&lt;font style=&quot;font-size: 10px;&quot;&gt;精确数据处理方法&lt;/font&gt;" style="edgeLabel;html=1;align=center;verticalAlign=middle;resizable=0;points=[];" vertex="1" connectable="0" parent="xREA5gm83luH5El8yLYb-38">
          <mxGeometry x="0.0117" y="2" relative="1" as="geometry">
            <mxPoint as="offset" />
          </mxGeometry>
        </mxCell>
        <mxCell id="xREA5gm83luH5El8yLYb-60" style="edgeStyle=orthogonalEdgeStyle;rounded=0;orthogonalLoop=1;jettySize=auto;html=1;" edge="1" parent="1" source="xREA5gm83luH5El8yLYb-42">
          <mxGeometry relative="1" as="geometry">
            <mxPoint x="560" y="530" as="targetPoint" />
          </mxGeometry>
        </mxCell>
        <mxCell id="xREA5gm83luH5El8yLYb-61" value="技术支持" style="edgeLabel;html=1;align=center;verticalAlign=middle;resizable=0;points=[];" vertex="1" connectable="0" parent="xREA5gm83luH5El8yLYb-60">
          <mxGeometry x="-0.023" y="1" relative="1" as="geometry">
            <mxPoint y="1" as="offset" />
          </mxGeometry>
        </mxCell>
        <mxCell id="xREA5gm83luH5El8yLYb-42" value="&lt;div&gt;协同监测&lt;/div&gt;&lt;div&gt;灾害防治&lt;/div&gt;" style="rounded=1;whiteSpace=wrap;html=1;" vertex="1" parent="1">
          <mxGeometry x="500" y="595" width="120" height="60" as="geometry" />
        </mxCell>
        <mxCell id="xREA5gm83luH5El8yLYb-47" value="" style="endArrow=none;dashed=1;html=1;rounded=0;" edge="1" parent="1">
          <mxGeometry width="50" height="50" relative="1" as="geometry">
            <mxPoint x="70" y="400" as="sourcePoint" />
            <mxPoint x="530" y="280" as="targetPoint" />
            <Array as="points">
              <mxPoint x="530" y="400" />
            </Array>
          </mxGeometry>
        </mxCell>
        <mxCell id="xREA5gm83luH5El8yLYb-48" value="" style="endArrow=none;dashed=1;html=1;rounded=0;" edge="1" parent="1">
          <mxGeometry width="50" height="50" relative="1" as="geometry">
            <mxPoint x="70" y="400" as="sourcePoint" />
            <mxPoint x="530" y="280" as="targetPoint" />
            <Array as="points">
              <mxPoint x="70" y="280" />
            </Array>
          </mxGeometry>
        </mxCell>
        <mxCell id="xREA5gm83luH5El8yLYb-49" value="" style="endArrow=none;dashed=1;html=1;rounded=0;" edge="1" parent="1">
          <mxGeometry width="50" height="50" relative="1" as="geometry">
            <mxPoint x="70" y="530" as="sourcePoint" />
            <mxPoint x="690" y="410" as="targetPoint" />
            <Array as="points">
              <mxPoint x="690" y="530" />
            </Array>
          </mxGeometry>
        </mxCell>
        <mxCell id="xREA5gm83luH5El8yLYb-50" value="" style="endArrow=none;dashed=1;html=1;rounded=0;" edge="1" parent="1">
          <mxGeometry width="50" height="50" relative="1" as="geometry">
            <mxPoint x="70" y="530" as="sourcePoint" />
            <mxPoint x="690" y="410" as="targetPoint" />
            <Array as="points">
              <mxPoint x="70" y="410" />
            </Array>
          </mxGeometry>
        </mxCell>
        <mxCell id="xREA5gm83luH5El8yLYb-51" value="" style="endArrow=none;dashed=1;html=1;rounded=0;" edge="1" parent="1">
          <mxGeometry width="50" height="50" relative="1" as="geometry">
            <mxPoint x="70" y="670" as="sourcePoint" />
            <mxPoint x="630" y="550" as="targetPoint" />
            <Array as="points">
              <mxPoint x="630" y="670" />
            </Array>
          </mxGeometry>
        </mxCell>
        <mxCell id="xREA5gm83luH5El8yLYb-52" value="" style="endArrow=none;dashed=1;html=1;rounded=0;" edge="1" parent="1">
          <mxGeometry width="50" height="50" relative="1" as="geometry">
            <mxPoint x="70" y="670" as="sourcePoint" />
            <mxPoint x="630" y="550" as="targetPoint" />
            <Array as="points">
              <mxPoint x="70" y="550" />
            </Array>
          </mxGeometry>
        </mxCell>
        <mxCell id="xREA5gm83luH5El8yLYb-53" value="&lt;p&gt;&lt;span style=&quot;font-size: 12pt; line-height: 150%; background: rgb(255, 255, 255);&quot;&gt;高平顺磁浮线路建造与运维技术&lt;/span&gt;&lt;/p&gt;" style="text;html=1;align=center;verticalAlign=middle;whiteSpace=wrap;rounded=0;" vertex="1" parent="1">
          <mxGeometry x="140" y="240" width="360" height="30" as="geometry" />
        </mxCell>
      </root>
    </mxGraphModel>
  </diagram>
</mxfile>
